<svg class="icon" viewBox="0 0 1024 1024" xmlns="http://www.w3.org/2000/svg" width="32" height="32"><defs><style/></defs><path d="M376.647 655.638l19.702 116.677c4.1 24.277 21.13 27.271 37.596 20.006l100.839-44.49a41.403 41.403 0 0 0 16.354-15.958l267.587-468.027c29.086-55.47 12.492-107.054-35.703-134.595-48.194-27.54-106.458-10.784-133.27 36.071L382.165 633.348a41.946 41.946 0 0 0-5.518 22.29zm311.227-457.242c3.996-6.959 24.295-30.811 64.569-11.17 40.274 19.642 26.581 52.782 22.477 59.964L498.165 720.328l-65.206 28.482-17.821-84.149 272.736-466.265z"/><path d="M913.074 544.395c-1.512-62.471-18.814-120.981-47.961-171.744-9.563 18.373-22.209 34.802-37.192 48.782 24.055 50.505 33.948 106.713 28.501 162.293 63.909 12.306 112.23 68.744 112.23 136.601 0 76.857-61.956 138.933-138.38 138.933-192.112 0-384.206.235-576.319 0-110.445-4.758-198.601-96.274-198.601-208.514 0-115.284 92.93-208.741 207.567-208.741 2.399 0 4.726.279 7.104.361 41.59-107.341 141.434-185.348 260.593-194.28a180.292 180.292 0 0 1 23.675-56.543c-.26-.001-.515-.019-.777-.019-139.485 0-260.34 79.879-320.04 196.578C102.145 402.841 0 514.745 0 650.745c0 141.883 114.278 251.222 253.952 257.308h574.382c106.994-.001 195.667-80.128 195.666-187.725.001-77.764-45.413-144.688-110.926-175.933z"/></svg>