<?xml version="1.0" standalone="no"?><!DOCTYPE svg PUBLIC "-//W3C//DTD SVG 1.1//EN" "http://www.w3.org/Graphics/SVG/1.1/DTD/svg11.dtd"><svg t="1548748871807" class="icon" style="" viewBox="0 0 1024 1024" version="1.1" xmlns="http://www.w3.org/2000/svg" p-id="1221" xmlns:xlink="http://www.w3.org/1999/xlink" width="32" height="32"><defs><style type="text/css"></style></defs><path d="M376.647 655.638l19.702 116.677c4.1 24.277 21.13 27.271 37.596 20.006l100.839-44.49c6.826-3.673 12.488-9.184 16.354-15.958l0 0 267.587-468.027c29.086-55.47 12.492-107.054-35.703-134.595-48.194-27.54-106.458-10.784-133.27 36.071L382.165 633.348C378.289 640.115 376.379 647.834 376.647 655.638zM687.874 198.396c3.996-6.959 24.295-30.811 64.569-11.17l0 0c40.274 19.642 26.581 52.782 22.477 59.964L498.165 720.328l-65.206 28.482-17.821-84.149L687.874 198.396z" p-id="1222"></path><path d="M913.074 544.395c-1.512-62.471-18.814-120.981-47.961-171.744-9.563 18.373-22.209 34.802-37.192 48.782 24.055 50.505 33.948 106.713 28.501 162.293 63.909 12.306 112.23 68.744 112.23 136.601 0 76.857-61.956 138.933-138.38 138.933-192.112 0-384.206 0.235-576.319 0-110.445-4.758-198.601-96.274-198.601-208.514 0-115.284 92.93-208.741 207.567-208.741 2.399 0 4.726 0.279 7.104 0.361 41.59-107.341 141.434-185.348 260.593-194.28 4.688-20.391 12.776-39.437 23.675-56.543-0.26-0.001-0.515-0.019-0.777-0.019-139.485 0-260.34 79.879-320.04 196.578C102.145 402.841 0 514.745 0 650.745c0 141.883 114.278 251.222 253.952 257.308l574.382 0c106.994-0.001 195.667-80.128 195.666-187.725C1024.001 642.564 978.587 575.64 913.074 544.395z" p-id="1223"></path></svg>